
<svg version="1.1" id="Capa_1" xmlns="http://www.w3.org/2000/svg" xmlns:xlink="http://www.w3.org/1999/xlink" x="0px" y="0px"
	 viewBox="0 0 225.465 225.465" style="enable-background:new 0 0 225.465 225.465;" xml:space="preserve">
<path d="M204.459,21.359c-28.008-28.008-73.58-28.008-101.588,0C84.726,39.505,78.352,65.021,83.719,88.359L2.197,169.881
	c-2.929,2.93-2.929,7.678,0,10.607c1.465,1.464,3.385,2.196,5.304,2.196s3.839-0.732,5.304-2.196l48.405-48.405l14.721,6.491
	l-27.772,27.772c-2.929,2.93-2.929,7.678,0,10.607c1.465,1.464,3.385,2.196,5.304,2.196s3.839-0.732,5.304-2.196l27.908-27.908
	l6.622,14.59l-48.672,48.672c-2.929,2.93-2.929,7.678,0,10.607c1.465,1.464,3.385,2.196,5.304,2.196s3.839-0.732,5.304-2.196
	l81.079-81.079c5.692,1.408,11.523,2.117,17.356,2.117c18.395,0,36.79-7.002,50.794-21.006
	C232.467,94.94,232.467,49.367,204.459,21.359z M104.625,152.306l-5.558-12.246c-2.808-6.188-7.778-11.106-13.998-13.849
	l-12.484-5.504l16.708-16.708c3.378,6.842,7.89,13.262,13.577,18.949c5.425,5.425,11.514,9.786,18.002,13.11L104.625,152.306z
	 M184.897,103.383L184.897,103.383c-8.343,8.343-19.434,12.937-31.231,12.937s-22.889-4.594-31.23-12.937
	c-17.22-17.22-17.22-45.24,0-62.461c8.342-8.342,19.433-12.936,31.23-12.936s22.889,4.594,31.231,12.936
	C202.115,58.143,202.115,86.163,184.897,103.383z M174.289,51.528c11.372,11.373,11.372,29.877,0,41.248
	c-5.509,5.51-12.833,8.543-20.624,8.543s-15.115-3.033-20.623-8.543c-11.372-11.372-11.372-29.875,0-41.248
	c5.508-5.509,12.832-8.542,20.623-8.542S168.781,46.02,174.289,51.528z"/>
<g>
</g>
<g>
</g>
<g>
</g>
<g>
</g>
<g>
</g>
<g>
</g>
<g>
</g>
<g>
</g>
<g>
</g>
<g>
</g>
<g>
</g>
<g>
</g>
<g>
</g>
<g>
</g>
<g>
</g>
</svg>
