<svg xmlns="http://www.w3.org/2000/svg" xml:space="preserve" viewBox="0 0 225.5 225.5"><path d="M204.5 21.4a72 72 0 0 0-120.8 67L2.2 169.9a7.5 7.5 0 1 0 10.6 10.6L61.2 132l14.7 6.5-27.7 27.7A7.5 7.5 0 1 0 58.8 177l27.9-28 6.6 14.6-48.7 48.7A7.5 7.5 0 1 0 55.2 223l81.1-81a72.3 72.3 0 0 0 68.2-19 72 72 0 0 0 0-101.5zm-99.9 131L99.1 140a27.6 27.6 0 0 0-14-13.9l-12.5-5.5L89.3 104a71.5 71.5 0 0 0 31.6 32l-16.3 16.3zm80.3-49a43.9 43.9 0 0 1-62.5 0 44.2 44.2 0 1 1 62.5 0zm-10.6-51.9a29.2 29.2 0 1 1-41.4 41.3 29.2 29.2 0 0 1 41.4-41.3z"/></svg>